<svg xmlns="http://www.w3.org/2000/svg" shape-rendering="geometricPrecision" text-rendering="geometricPrecision" image-rendering="optimizeQuality" fill-rule="evenodd" clip-rule="evenodd" viewBox="0 0 512 358.87"><path fill-rule="nonzero" d="M128.09 358.87c-42.61 0-74.76-13.99-96.41-41.98-10.59-13.68-18.52-29.23-23.81-46.64C2.62 252.99 0 234.02 0 213.36c0-23.45 3.27-45.8 9.81-67.03 6.55-21.24 16.35-41.25 29.38-60 13.05-18.78 28.97-35.34 47.76-49.66 18.67-14.24 40.16-26.26 64.44-36.03a8.843 8.843 0 0 1 8.51 1.06l88.49 56.56c4.12 2.62 5.33 8.09 2.71 12.21a8.712 8.712 0 0 1-4.07 3.41c-16.64 6.98-31.71 14.08-45.19 21.31-13.47 7.21-25.48 14.61-36.02 22.19-10.22 7.33-19.04 15.44-26.45 24.29-2.46 2.94-4.76 5.95-6.9 9.03 4.65-1.44 9.61-2.16 14.88-2.16 13.55 0 26.28 2.12 38.18 6.36 11.9 4.25 22.93 10.62 33.08 19.1 10.43 8.72 18.26 19.37 23.47 31.94 5.13 12.35 7.69 26.44 7.69 42.26 0 18.18-2.7 34.19-8.08 48.01-5.51 14.18-13.82 25.97-24.88 35.33-10.85 9.17-23.79 16.05-38.81 20.61-14.74 4.48-31.38 6.72-49.91 6.72zm-82.4-52.81c18.08 23.36 45.55 35.05 82.4 35.05 16.93 0 31.86-1.96 44.77-5.89 12.64-3.84 23.48-9.58 32.5-17.21 8.79-7.45 15.41-16.84 19.82-28.18 4.55-11.69 6.83-25.57 6.83-41.63 0-13.52-2.1-25.34-6.3-35.45-4.11-9.9-10.27-18.28-18.48-25.15-8.49-7.1-17.72-12.43-27.67-15.97-9.95-3.56-20.7-5.33-32.21-5.33-9.05 0-16.67 3.33-22.85 9.99-3.14 3.35-8.37 3.77-12.01.87l-4.44-3.55c-3.17-2.43-4.4-6.79-2.71-10.6 5.26-11.83 12.07-22.74 20.42-32.72 8.33-9.93 18.24-19.03 29.72-27.28 11.16-8.02 23.84-15.83 38.03-23.44 9.78-5.24 20.23-10.36 31.34-15.36L153.82 18.8c-21.08 8.84-39.78 19.5-56.11 31.95-17.27 13.17-31.92 28.41-43.94 45.71-12.03 17.31-21.04 35.68-27.02 55.08-5.99 19.42-8.99 40.03-8.99 61.82 0 19.06 2.35 36.32 7.04 51.76 4.64 15.3 11.61 28.95 20.89 40.94zm341.92 52.81c-42.62 0-74.76-13.99-96.42-41.98-10.58-13.68-18.52-29.23-23.81-46.63-5.24-17.26-7.86-36.24-7.86-56.9 0-23.45 3.27-45.8 9.81-67.03 6.55-21.24 16.35-41.25 29.38-60 13.04-18.78 28.97-35.34 47.76-49.66 18.66-14.24 40.15-26.25 64.44-36.03a8.827 8.827 0 0 1 8.5 1.06l88.5 56.56c4.11 2.62 5.33 8.09 2.7 12.21a8.737 8.737 0 0 1-4.06 3.41c-16.64 6.98-31.71 14.08-45.2 21.31-13.46 7.21-25.48 14.61-36.02 22.19-10.21 7.33-19.03 15.44-26.45 24.29a128.55 128.55 0 0 0-6.94 9.09c4.71-1.48 9.69-2.22 14.93-2.22 13.54 0 26.28 2.12 38.17 6.36l.44.17c11.76 4.26 22.65 10.57 32.64 18.93 10.44 8.72 18.26 19.37 23.48 31.94 5.12 12.35 7.68 26.44 7.68 42.26 0 18.18-2.69 34.18-8.07 48.01-5.52 14.18-13.82 25.97-24.89 35.33-10.84 9.17-23.78 16.05-38.81 20.61-14.74 4.48-31.38 6.72-49.9 6.72zm-82.4-52.81c18.08 23.37 45.54 35.05 82.4 35.05 16.93 0 31.86-1.96 44.77-5.89 12.63-3.84 23.47-9.58 32.49-17.21 8.8-7.45 15.41-16.84 19.83-28.18 4.54-11.69 6.82-25.57 6.82-41.63 0-13.52-2.1-25.34-6.3-35.45-4.1-9.9-10.27-18.28-18.48-25.15-8.4-7.02-17.5-12.31-27.27-15.84l-.4-.13c-9.95-3.56-20.69-5.33-32.2-5.33-4.61 0-8.79.82-12.51 2.45-3.75 1.63-7.21 4.16-10.35 7.54-3.14 3.35-8.37 3.77-12.01.87l-4.44-3.55a8.86 8.86 0 0 1-2.71-10.6c5.26-11.83 12.07-22.73 20.43-32.71 8.32-9.94 18.23-19.04 29.71-27.29 11.16-8.02 23.85-15.83 38.04-23.44 9.77-5.24 20.22-10.36 31.34-15.36L413.33 18.8c-21.07 8.84-39.78 19.5-56.1 31.95-17.28 13.17-31.93 28.41-43.95 45.71-12.03 17.31-21.04 35.68-27.02 55.08-5.99 19.42-8.98 40.03-8.98 61.82 0 19.07 2.35 36.33 7.04 51.76 4.64 15.3 11.61 28.95 20.89 40.94z"/></svg>